<svg width="500" height="500" version="1.1" xmlns="http://www.w3.org/2000/svg" desc="Created with imagetracer.js version 1.2.6" ><path fill="rgb(0,0,0)" stroke="rgb(0,0,0)" stroke-width="1" opacity="1" d="M 0 0 L 500 0 L 500 500 L 0 500 L 0 0 Z M 332 103 L 330 104 L 327 108 L 331 120 L 338 134 L 338 137 L 341 143 L 341 146 L 343 149 L 344 155 L 352 171 L 353 176 L 358 185 L 361 194 L 361 197 L 363 200 L 363 203 L 367 215 L 367 220 L 368 221 L 368 244 L 364 243 L 361 241 L 358 241 L 348 237 L 344 237 L 332 233 L 302 233 Q 300 235 297 234 L 296 228 L 292 216 L 283 197 L 281 195 L 280 191 L 276 185 L 275 181 L 271 177 L 268 178 L 265 182 Q 264 185 266 187 L 266 222 L 265 223 L 264 229 L 263 230 Q 258 229 258 231 L 252 231 L 251 232 L 241 232 L 240 233 L 221 227 L 210 219 L 198 206 L 200 205 L 201 201 Q 199 197 195 197 L 195 189 L 185 174 L 173 161 L 171 155 L 165 147 L 155 137 L 143 131 L 134 130 L 133 129 L 107 129 L 101 131 L 94 135 L 86 144 L 79 156 L 77 166 L 76 167 L 76 171 L 75 172 L 74 189 L 73 190 L 73 217 L 74 218 L 74 224 L 78 235 L 82 256 L 84 259 L 84 262 L 88 272 L 89 279 L 94 283 L 100 284 L 95 291 L 95 300 L 101 312 L 101 314 L 104 317 L 107 323 L 121 335 L 128 338 Q 131 337 132 339 L 139 339 L 140 340 L 156 340 L 157 339 L 163 339 L 166 337 Q 168 338 167 335 L 170 336 L 174 336 L 180 339 L 193 340 L 194 341 L 225 341 L 231 339 L 235 339 L 236 338 L 241 338 L 242 337 L 252 337 L 269 331 L 280 330 L 285 328 L 289 328 L 294 326 L 297 326 L 306 321 L 339 321 Q 340 319 345 320 L 346 319 L 353 319 L 354 318 L 380 317 L 381 316 L 388 316 L 389 315 L 395 315 L 396 314 L 402 314 L 414 310 L 417 310 L 429 304 L 434 299 L 438 291 L 438 279 L 435 271 L 426 261 L 422 260 L 422 257 L 425 250 L 426 241 L 427 240 L 427 216 L 426 215 L 425 207 L 424 206 L 424 202 L 420 195 L 416 182 L 410 172 L 409 168 L 396 151 L 373 127 L 364 120 L 361 119 L 356 115 L 354 115 L 351 112 L 349 112 L 340 107 L 338 105 L 332 103 Z " /><path fill="rgb(0,0,0)" stroke="rgb(0,0,0)" stroke-width="1" opacity="1" d="M 341.5 118 L 359.5 128 L 368.5 135 L 384 150.5 L 397 165.5 L 402 173.5 L 402 175.5 L 404 177.5 L 405 181.5 L 407 183.5 L 411 196.5 L 415 204.5 L 415 207.5 L 417 212.5 Q 415.8 217.2 418 218.5 L 418 238.5 Q 415.8 239.8 417 244.5 L 412 257.5 L 412 262.5 L 416.5 268 L 421.5 269 L 426 273.5 L 429 281.5 L 429 288.5 Q 427 294 422.5 297 L 417.5 300 L 412.5 300 Q 411.5 298 407.5 299 L 406.5 300 L 363.5 300 L 362.5 299 L 356.5 299 L 355.5 298 L 347.5 297 L 312.5 285 L 309 287.5 L 308 291.5 L 311.5 295 L 314.5 295 L 327.5 300 L 330.5 300 L 333.5 302 L 342.5 305 L 345.5 305 L 350.5 307 L 354.5 307 L 355.5 308 L 362 308.5 L 351.5 309 L 350.5 310 L 343.5 310 L 342.5 311 Q 337.7 309.7 336.5 312 L 304.5 312 Q 303.8 313.8 300.5 313 L 294.5 317 L 291.5 317 L 286.5 319 L 282.5 319 L 277.5 321 L 271.5 321 L 259.5 325 L 256.5 325 L 249.5 328 L 239.5 328 L 238.5 329 L 233.5 329 L 232.5 330 L 228.5 330 L 222.5 332 L 194.5 332 L 193.5 331 Q 188.7 332.3 187.5 330 L 181.5 330 L 175.5 327 L 165.5 326 L 160.5 322 L 157 324.5 L 156 330 L 153.5 331 L 141.5 331 L 140.5 330 L 132.5 330 L 126.5 328 L 115 318.5 L 107 304.5 L 107 302.5 L 104 296.5 L 104 293.5 L 110 286.5 L 111 282.5 Q 109.4 279.6 105.5 279 L 104 279.5 Q 104.5 275.5 101.5 275 L 97 272.5 L 96 265.5 L 93 259.5 L 93 256.5 L 89 244.5 L 89 240.5 L 88 239.5 L 87 231.5 L 83 220.5 L 83 214.5 L 82 213.5 L 82 191.5 L 83 190.5 L 83 182.5 L 84 181.5 L 84 172.5 L 86 167.5 L 87 159.5 L 92 150.5 L 100.5 141 L 108.5 138 L 131.5 138 L 132.5 139 L 137.5 139 L 140.5 140 L 150.5 145 L 157 150.5 L 162 157.5 L 164 162.5 L 154 170.5 Q 152.3 177.3 147 180.5 L 147 186.5 L 150.5 191 Q 153.1 190.2 152 193.5 L 153 196 L 157.5 197 L 163.5 201 L 166.5 201 L 172.5 204 Q 175.8 203.3 176.5 205 L 190 205 L 189 208.5 L 196 217.5 L 205.5 227 L 214.5 234 L 216.5 234 L 223.5 238 L 229.5 239 L 236.5 242 Q 240.5 241 241.5 243 L 248.5 243 L 253.5 240 L 264.5 239 L 271 234.5 L 275 222.5 L 275.5 203 L 284 220.5 L 286 226.5 L 286 229.5 L 288 233.5 L 288 239.5 L 291.5 243 L 302.5 243 L 303.5 242 L 329.5 242 L 330.5 243 L 345.5 246 L 349.5 248 L 352.5 248 L 361.5 251 L 366.5 254 L 371.5 255 L 374 254 L 377 245.5 L 377 218.5 L 376 217.5 L 376 211.5 Q 374.3 210.8 375 207.5 L 373 203.5 L 373 200.5 L 367 182.5 L 365 179.5 L 365 177.5 L 363 175.5 L 361 168.5 L 352 149.5 L 352 146.5 L 346 128.5 L 341 118.5 L 341.5 118 Z " /><path fill="rgb(0,0,0)" stroke="rgb(0,0,0)" stroke-width="1" opacity="1" d="M 173.5 175 L 176.5 175 L 180.5 178 L 182 178 Q 183.3 183.5 179.5 185 L 172.5 185 L 171 183.5 Q 169.5 176.5 173.5 175 Z " /><path fill="rgb(237,224,172)" stroke="rgb(237,224,172)" stroke-width="1" opacity="1" d="M 170.5 160 L 175 162.5 L 178.5 168 L 184 172.5 L 194 187.5 L 194 197.5 L 190.5 200 Q 187.3 199.2 186.5 201 L 178.5 201 L 169.5 198 Q 168.8 199.8 165.5 199 L 163.5 197 L 157.5 197 L 153 194.5 L 153 192.5 L 148 187.5 L 148 179.5 L 158 173.5 Q 158.6 167.6 162.5 165 L 167.5 161 L 170.5 160 Z M 175 174 L 173 175 L 170 179 L 170 182 L 174 186 Q 178 187 181 185 L 183 182 L 183 180 L 178 175 L 175 174 Z " /><path fill="rgb(224,112,34)" stroke="rgb(224,112,34)" stroke-width="1" opacity="1" d="M 357.5 116 L 360 118.5 L 359.5 119 L 357 116.5 L 357.5 116 Z " /><path fill="rgb(224,112,34)" stroke="rgb(224,112,34)" stroke-width="1" opacity="1" d="M 364.5 121 L 368 124.5 L 367.5 125 L 364 121.5 L 364.5 121 Z " /><path fill="rgb(224,112,34)" stroke="rgb(224,112,34)" stroke-width="1" opacity="1" d="M 369.5 125 L 372 127.5 L 371.5 128 L 369 125.5 L 369.5 125 Z " /><path fill="rgb(224,112,34)" stroke="rgb(224,112,34)" stroke-width="1" opacity="1" d="M 373.5 128 L 395 149.5 L 394.5 150 L 373 128.5 L 373.5 128 Z " /><path fill="rgb(224,112,34)" stroke="rgb(224,112,34)" stroke-width="1" opacity="1" d="M 368.5 134 L 375 140.5 L 374.5 141 L 368 134.5 L 368.5 134 Z " /><path fill="rgb(224,112,34)" stroke="rgb(224,112,34)" stroke-width="1" opacity="1" d="M 93.5 135 L 94 135.5 L 91.5 138 L 91 137.5 L 93.5 135 Z " /><path fill="rgb(224,112,34)" stroke="rgb(224,112,34)" stroke-width="1" opacity="1" d="M 90.5 139 L 91 139.5 L 86.5 144 L 86 143.5 L 90.5 139 Z " /><path fill="rgb(224,112,34)" stroke="rgb(224,112,34)" stroke-width="1" opacity="1" d="M 157.5 139 L 164 145.5 L 163.5 146 L 157 139.5 L 157.5 139 Z " /><path fill="rgb(224,112,34)" stroke="rgb(224,112,34)" stroke-width="1" opacity="1" d="M 153.5 146 L 158 150.5 L 157.5 151 L 153 146.5 L 153.5 146 Z " /><path fill="rgb(224,112,34)" stroke="rgb(224,112,34)" stroke-width="1" opacity="1" d="M 164.5 147 L 167 149.5 L 166.5 150 L 164 147.5 L 164.5 147 Z " /><path fill="rgb(224,112,34)" stroke="rgb(224,112,34)" stroke-width="1" opacity="1" d="M 382.5 148 L 385 150.5 L 384.5 151 L 382 148.5 L 382.5 148 Z " /><path fill="rgb(224,112,34)" stroke="rgb(224,112,34)" stroke-width="1" opacity="1" d="M 167.5 151 L 170 153.5 L 169.5 154 L 167 151.5 L 167.5 151 Z " /><path fill="rgb(224,112,34)" stroke="rgb(224,112,34)" stroke-width="1" opacity="1" d="M 395.5 151 L 398 153.5 L 397.5 154 L 395 151.5 L 395.5 151 Z " /><path fill="rgb(224,112,34)" stroke="rgb(224,112,34)" stroke-width="1" opacity="1" d="M 158.5 152 L 161 154.5 L 160.5 155 L 158 152.5 L 158.5 152 Z " /><path fill="rgb(224,112,34)" stroke="rgb(224,112,34)" stroke-width="1" opacity="1" d="M 398.5 155 L 404 160.5 L 403.5 161 L 398 155.5 L 398.5 155 Z " /><path fill="rgb(224,112,34)" stroke="rgb(224,112,34)" stroke-width="1" opacity="1" d="M 389.5 156 L 392 158.5 L 391.5 159 L 389 156.5 L 389.5 156 Z " /><path fill="rgb(224,112,34)" stroke="rgb(224,112,34)" stroke-width="1" opacity="1" d="M 158.5 166 L 159 166.5 L 154.5 171 L 154 170.5 L 158.5 166 Z " /><path fill="rgb(224,112,34)" stroke="rgb(224,112,34)" stroke-width="1" opacity="1" d="M 197.5 205 L 201 208.5 L 200.5 209 L 197 205.5 L 197.5 205 Z " /><path fill="rgb(224,112,34)" stroke="rgb(224,112,34)" stroke-width="1" opacity="1" d="M 190.5 209 L 194 212.5 L 193.5 213 L 190 209.5 L 190.5 209 Z " /><path fill="rgb(224,112,34)" stroke="rgb(224,112,34)" stroke-width="1" opacity="1" d="M 201.5 210 L 204 212.5 L 203.5 213 L 201 210.5 L 201.5 210 Z " /><path fill="rgb(224,112,34)" stroke="rgb(224,112,34)" stroke-width="1" opacity="1" d="M 194.5 214 L 197 216.5 L 196.5 217 L 194 214.5 L 194.5 214 Z " /><path fill="rgb(224,112,34)" stroke="rgb(224,112,34)" stroke-width="1" opacity="1" d="M 204.5 214 L 209 218.5 L 208.5 219 L 204 214.5 L 204.5 214 Z " /><path fill="rgb(224,112,34)" stroke="rgb(224,112,34)" stroke-width="1" opacity="1" d="M 197.5 218 L 205 225.5 L 204.5 226 L 197 218.5 L 197.5 218 Z " /><path fill="rgb(224,112,34)" stroke="rgb(224,112,34)" stroke-width="1" opacity="1" d="M 210.5 219 L 215 223.5 L 214.5 224 L 210 219.5 L 210.5 219 Z " /><path fill="rgb(224,112,34)" stroke="rgb(224,112,34)" stroke-width="1" opacity="1" d="M 206.5 226 L 210 229.5 L 209.5 230 L 206 226.5 L 206.5 226 Z " /><path fill="rgb(224,112,34)" stroke="rgb(224,112,34)" stroke-width="1" opacity="1" d="M 211.5 230 L 214 232.5 L 213.5 233 L 211 230.5 L 211.5 230 Z " /><path fill="rgb(224,112,34)" stroke="rgb(224,112,34)" stroke-width="1" opacity="1" d="M 425.5 261 L 434 269.5 L 433.5 270 L 425 261.5 L 425.5 261 Z " /><path fill="rgb(224,112,34)" stroke="rgb(224,112,34)" stroke-width="1" opacity="1" d="M 421.5 268 L 427 273.5 L 426.5 274 L 421 268.5 L 421.5 268 Z " /><path fill="rgb(224,112,34)" stroke="rgb(224,112,34)" stroke-width="1" opacity="1" d="M 90.5 279 L 93 281.5 L 92.5 282 L 90 279.5 L 90.5 279 Z " /><path fill="rgb(224,112,34)" stroke="rgb(224,112,34)" stroke-width="1" opacity="1" d="M 103.5 280 L 104 280.5 L 99.5 285 L 99 284.5 L 103.5 280 Z " /><path fill="rgb(224,112,34)" stroke="rgb(224,112,34)" stroke-width="1" opacity="1" d="M 98.5 286 L 99 286.5 L 96.5 289 L 96 288.5 L 98.5 286 Z " /><path fill="rgb(224,112,34)" stroke="rgb(224,112,34)" stroke-width="1" opacity="1" d="M 426.5 293 L 427 293.5 L 423.5 297 L 423 296.5 L 426.5 293 Z " /><path fill="rgb(224,112,34)" stroke="rgb(224,112,34)" stroke-width="1" opacity="1" d="M 365.5 308 L 377 308.5 L 365.5 309 L 365.5 308 Z " /><path fill="rgb(224,112,34)" stroke="rgb(224,112,34)" stroke-width="1" opacity="1" d="M 102.5 314 L 105 316.5 L 104.5 317 L 102 314.5 L 102.5 314 Z " /><path fill="rgb(224,112,34)" stroke="rgb(224,112,34)" stroke-width="1" opacity="1" d="M 114.5 318 L 119 322.5 L 118.5 323 L 114 318.5 L 114.5 318 Z " /><path fill="rgb(224,112,34)" stroke="rgb(224,112,34)" stroke-width="1" opacity="1" d="M 120.5 323 L 124 326.5 L 123.5 327 L 120 323.5 L 120.5 323 Z " /><path fill="rgb(224,112,34)" stroke="rgb(224,112,34)" stroke-width="1" opacity="1" d="M 110.5 325 L 113 327.5 L 112.5 328 L 110 325.5 L 110.5 325 Z " /><path fill="rgb(224,112,34)" stroke="rgb(224,112,34)" stroke-width="1" opacity="1" d="M 115.5 329 L 120 333.5 L 119.5 334 L 115 329.5 L 115.5 329 Z " /><path fill="rgb(255,127,39)" stroke="rgb(255,127,39)" stroke-width="1" opacity="1" d="M 330.5 104 Q 334.7 103.3 336.5 105 L 341.5 109 L 343.5 109 L 352.5 115 L 356.5 116 L 363.5 121 L 372.5 128 L 395 150.5 L 408 167.5 L 409 171.5 L 415 181.5 L 419 194.5 L 423 201.5 L 423 205.5 L 424 206.5 L 425 214.5 L 426 215.5 L 426 240.5 L 425 241.5 L 425 246.5 L 424 247.5 L 424 250.5 L 421 259.5 Q 421.5 261.5 424.5 261 L 434 270.5 L 437 278.5 L 437 291.5 Q 434.1 299.6 427.5 304 L 417.5 309 L 414.5 309 L 402.5 313 L 396.5 313 L 395.5 314 L 389.5 314 L 388.5 315 L 381.5 315 L 380.5 316 L 354.5 317 L 353.5 318 L 346.5 318 L 345.5 319 Q 340.7 317.8 339.5 320 L 306.5 320 L 297.5 325 L 294.5 325 L 289.5 327 L 285.5 327 L 280.5 329 L 269.5 330 L 252.5 336 L 242.5 336 L 241.5 337 L 236.5 337 L 235.5 338 L 231.5 338 L 225.5 340 L 193.5 340 L 192.5 339 L 179.5 338 L 173.5 335 L 169.5 335 L 167 334 L 165.5 337 Q 163 339 157.5 338 L 156.5 339 L 139.5 339 L 138.5 338 L 131.5 338 Q 130.8 336.3 127.5 337 L 120.5 334 L 108 322.5 L 105 316.5 L 102 313.5 L 102 311.5 L 96 299.5 L 96 289.5 L 102 282.5 L 93.5 282 L 90 278.5 L 89 271.5 L 85 261.5 L 85 258.5 L 83 255.5 L 79 234.5 L 75 223.5 L 75 217.5 L 74 216.5 L 74 188.5 L 75 187.5 L 76 170.5 L 77 169.5 L 77 165.5 L 78 164.5 L 80 154.5 L 86 144.5 L 94.5 135 L 105.5 130 L 133.5 130 L 134.5 131 L 143.5 132 L 153.5 137 L 164 146.5 L 170 154.5 L 172 160.5 L 170.5 160 L 169.5 161 L 167.5 161 L 160 167.5 L 158 173.5 L 156.5 175 L 152 177 Q 153.4 169.7 159.5 166 L 165 162.5 Q 161.1 152.4 153.5 146 L 137.5 138 Q 132.7 139.3 131.5 137 L 109.5 137 L 99.5 141 L 97 143.5 L 89 154.5 L 85 164.5 L 85 168.5 L 83 173.5 L 82 191.5 L 81 192.5 L 81 213.5 L 82 214.5 L 82 220.5 Q 83.8 221.2 83 224.5 L 87 235.5 L 87 239.5 L 88 240.5 L 88 244.5 L 89 245.5 L 90 252.5 L 95 265.5 L 95 268.5 L 96 269.5 L 96 272.5 L 97 275 Q 101.7 274 103 277.5 L 103.5 281 Q 104.3 279.3 107.5 280 Q 110.8 280.8 110 285.5 L 103 293.5 L 103 296.5 L 109 310.5 L 113 315.5 L 114 318.5 L 118.5 323 L 123.5 327 L 133.5 331 L 152.5 332 L 153.5 331 L 158 330.5 Q 156 329.5 157 325.5 Q 157.5 322.5 161.5 323 L 166.5 327 L 176.5 328 L 182.5 331 L 188.5 331 L 189.5 332 Q 194.3 330.8 195.5 333 L 221.5 333 L 222.5 332 L 226.5 332 L 232.5 330 L 237.5 330 L 238.5 329 L 248.5 329 L 255.5 326 L 258.5 326 L 270.5 322 L 276.5 322 L 281.5 320 L 285.5 320 L 286.5 319 L 293.5 318 L 299.5 314 Q 302.8 314.8 303.5 313 L 335.5 313 L 336.5 312 L 349.5 311 L 350.5 310 L 363.5 310 L 364.5 309 L 377 308.5 L 362.5 308 L 361.5 307 L 350.5 306 L 314.5 294 L 311.5 294 L 309 291.5 Q 308.3 286.8 311.5 286 L 317.5 288 L 320.5 288 L 323.5 290 L 329.5 291 L 338.5 295 L 341.5 295 L 348.5 298 L 356.5 299 L 357.5 300 L 363.5 300 L 364.5 301 L 405.5 301 L 406.5 300 L 412.5 300 Q 413.3 301.7 416.5 301 Q 423 298.5 427 293.5 L 430 287.5 L 430 281.5 L 427 273.5 L 421.5 268 L 416.5 267 L 414 264.5 Q 412 262 413 256.5 L 418 243.5 Q 416.8 238.8 419 237.5 L 419 218.5 L 418 217.5 L 418 212.5 L 417 211.5 L 416 204.5 L 412 196.5 L 408 183.5 L 406 181.5 L 405 177.5 L 403 175.5 L 403 173.5 L 400 168.5 L 392 159.5 L 389 155.5 L 389 154 L 387 154 L 387 152 Q 384.3 153.1 385 150.5 L 368.5 134 L 359.5 127 L 340.5 116 L 340 118.5 L 345 128.5 L 353 154.5 L 357 161.5 L 357 163.5 L 360 168.5 L 362 175.5 L 364 177.5 L 364 179.5 L 366 182.5 L 372 200.5 L 372 203.5 L 374 207.5 Q 373.3 210.8 375 211.5 L 375 217.5 L 376 218.5 L 376 246.5 Q 374.3 247.3 375 250.5 L 372.5 254 L 368.5 254 L 361.5 250 L 352.5 247 L 349.5 247 L 345.5 245 L 330.5 242 L 329.5 241 L 304.5 241 L 303.5 242 L 291.5 242 L 289 239.5 L 289 233.5 L 287 229.5 L 287 226.5 L 285 220.5 L 274.5 200 L 274 223.5 L 273 224.5 L 272 231.5 L 267.5 237 Q 265.7 238.7 261.5 238 L 260.5 239 L 254.5 239 L 249.5 242 L 241.5 242 L 229.5 238 L 226.5 238 L 216.5 233 L 214.5 233 Q 204.7 226.3 197 217.5 L 190 208.5 L 190 206.5 Q 192.3 205.2 189.5 204 L 176.5 204 L 175.5 203 L 169.5 202 L 166.5 200 L 163.5 200 L 159 197.5 L 163.5 197 Q 164.3 199.8 168.5 199 L 170.5 198 L 178.5 201 L 186.5 201 L 193.5 198 L 197.5 198 Q 200.8 198.8 200 203.5 L 197 205.5 L 208.5 219 L 217.5 226 L 226.5 230 L 232.5 231 L 236.5 233 L 249.5 233 L 250.5 232 L 256.5 232 L 257.5 231 L 261.5 231 L 264 230 L 266 224.5 L 266 221.5 L 267 220.5 L 267 186.5 Q 264.7 185.2 266 180.5 Q 266.8 177.3 271.5 178 L 274 180.5 L 275 184.5 L 279 190.5 L 280 194.5 L 282 196.5 L 291 215.5 L 295 227.5 L 296 235 Q 299.4 236 300.5 234 L 332.5 234 L 344.5 238 L 348.5 238 L 358.5 242 L 361.5 242 L 367.5 245 L 369 242.5 L 369 220.5 L 368 219.5 L 368 214.5 L 367 213.5 L 366 206.5 L 364 202.5 L 364 199.5 L 362 196.5 L 362 193.5 L 359 184.5 L 354 175.5 L 353 170.5 L 345 154.5 L 344 148.5 L 342 145.5 L 342 142.5 L 339 136.5 L 339 133.5 L 332 119.5 L 328 106.5 L 330.5 104 Z " /><path fill="rgb(120,61,20)" stroke="rgb(120,61,20)" stroke-width="1" opacity="1" d="M 331.5 103 L 334 103.5 L 331.5 104 L 331.5 103 Z " /><path fill="rgb(120,61,20)" stroke="rgb(120,61,20)" stroke-width="1" opacity="1" d="M 360.5 128 L 364 131.5 L 363.5 132 L 360 128.5 L 360.5 128 Z " /><path fill="rgb(120,61,20)" stroke="rgb(120,61,20)" stroke-width="1" opacity="1" d="M 106.5 129 L 133 129.5 L 106.5 130 L 106.5 129 Z " /><path fill="rgb(120,61,20)" stroke="rgb(120,61,20)" stroke-width="1" opacity="1" d="M 135.5 130 L 139 130.5 L 135.5 131 L 135.5 130 Z " /><path fill="rgb(120,61,20)" stroke="rgb(120,61,20)" stroke-width="1" opacity="1" d="M 338.5 134 L 339 136.5 L 338 136.5 L 338.5 134 Z " /><path fill="rgb(120,61,20)" stroke="rgb(120,61,20)" stroke-width="1" opacity="1" d="M 109.5 137 L 131 137.5 L 109.5 138 L 109.5 137 Z " /><path fill="rgb(120,61,20)" stroke="rgb(120,61,20)" stroke-width="1" opacity="1" d="M 105.5 138 L 108 138.5 L 105.5 139 L 105.5 138 Z " /><path fill="rgb(120,61,20)" stroke="rgb(120,61,20)" stroke-width="1" opacity="1" d="M 132.5 138 L 137 138.5 L 132.5 139 L 132.5 138 Z " /><path fill="rgb(120,61,20)" stroke="rgb(120,61,20)" stroke-width="1" opacity="1" d="M 99.5 141 L 100 141.5 L 97.5 144 L 97 143.5 L 99.5 141 Z " /><path fill="rgb(120,61,20)" stroke="rgb(120,61,20)" stroke-width="1" opacity="1" d="M 341.5 143 L 342 145.5 L 341 145.5 L 341.5 143 Z " /><path fill="rgb(120,61,20)" stroke="rgb(120,61,20)" stroke-width="1" opacity="1" d="M 96.5 145 L 97 145.5 L 92.5 150 L 92 149.5 L 96.5 145 Z " /><path fill="rgb(120,61,20)" stroke="rgb(120,61,20)" stroke-width="1" opacity="1" d="M 379.5 145 L 382 147.5 L 381.5 148 L 379 145.5 L 379.5 145 Z " /><path fill="rgb(120,61,20)" stroke="rgb(120,61,20)" stroke-width="1" opacity="1" d="M 351.5 146 L 352 148.5 L 351 148.5 L 351.5 146 Z " /><path fill="rgb(120,61,20)" stroke="rgb(120,61,20)" stroke-width="1" opacity="1" d="M 343.5 149 L 344 151.5 L 343 151.5 L 343.5 149 Z " /><path fill="rgb(120,61,20)" stroke="rgb(120,61,20)" stroke-width="1" opacity="1" d="M 384.5 151 L 389 155.5 L 388.5 156 L 384 151.5 L 384.5 151 Z " /><path fill="rgb(120,61,20)" stroke="rgb(120,61,20)" stroke-width="1" opacity="1" d="M 172.5 158 L 173 160.5 L 172 160.5 L 172.5 158 Z " /><path fill="rgb(120,61,20)" stroke="rgb(120,61,20)" stroke-width="1" opacity="1" d="M 86.5 160 L 87 162.5 L 86 162.5 L 86.5 160 Z " /><path fill="rgb(120,61,20)" stroke="rgb(120,61,20)" stroke-width="1" opacity="1" d="M 85.5 164 L 86 167.5 L 85 167.5 L 85.5 164 Z " /><path fill="rgb(120,61,20)" stroke="rgb(120,61,20)" stroke-width="1" opacity="1" d="M 76.5 166 L 77 168.5 L 76 168.5 L 76.5 166 Z " /><path fill="rgb(120,61,20)" stroke="rgb(120,61,20)" stroke-width="1" opacity="1" d="M 84.5 169 L 85 171.5 L 84 171.5 L 84.5 169 Z " /><path fill="rgb(120,61,20)" stroke="rgb(120,61,20)" stroke-width="1" opacity="1" d="M 75.5 171 L 76 177.5 L 75 177.5 L 75.5 171 Z " /><path fill="rgb(120,61,20)" stroke="rgb(120,61,20)" stroke-width="1" opacity="1" d="M 83.5 173 L 84 181.5 L 83 181.5 L 83.5 173 Z " /><path fill="rgb(120,61,20)" stroke="rgb(120,61,20)" stroke-width="1" opacity="1" d="M 170.5 178 L 171 181.5 L 170 181.5 L 170.5 178 Z " /><path fill="rgb(120,61,20)" stroke="rgb(120,61,20)" stroke-width="1" opacity="1" d="M 74.5 180 L 75 186.5 L 74 186.5 L 74.5 180 Z " /><path fill="rgb(120,61,20)" stroke="rgb(120,61,20)" stroke-width="1" opacity="1" d="M 147.5 180 L 148 186.5 L 147 186.5 L 147.5 180 Z " /><path fill="rgb(120,61,20)" stroke="rgb(120,61,20)" stroke-width="1" opacity="1" d="M 265.5 181 L 266 185.5 L 265 185.5 L 265.5 181 Z " /><path fill="rgb(120,61,20)" stroke="rgb(120,61,20)" stroke-width="1" opacity="1" d="M 82.5 183 L 83 190.5 L 82 190.5 L 82.5 183 Z " /><path fill="rgb(120,61,20)" stroke="rgb(120,61,20)" stroke-width="1" opacity="1" d="M 173.5 185 L 179 185.5 L 173.5 186 L 173.5 185 Z " /><path fill="rgb(120,61,20)" stroke="rgb(120,61,20)" stroke-width="1" opacity="1" d="M 266.5 187 L 267 219.5 L 266 219.5 L 266.5 187 Z " /><path fill="rgb(120,61,20)" stroke="rgb(120,61,20)" stroke-width="1" opacity="1" d="M 148.5 188 L 151 190.5 L 150.5 191 L 148 188.5 L 148.5 188 Z " /><path fill="rgb(120,61,20)" stroke="rgb(120,61,20)" stroke-width="1" opacity="1" d="M 194.5 188 L 195 197 L 197 197.5 L 194 198 L 194.5 188 Z " /><path fill="rgb(120,61,20)" stroke="rgb(120,61,20)" stroke-width="1" opacity="1" d="M 73.5 189 L 74 216.5 L 73 216.5 L 73.5 189 Z " /><path fill="rgb(120,61,20)" stroke="rgb(120,61,20)" stroke-width="1" opacity="1" d="M 81.5 192 L 82 212.5 L 81 212.5 L 81.5 192 Z " /><path fill="rgb(120,61,20)" stroke="rgb(120,61,20)" stroke-width="1" opacity="1" d="M 361.5 194 L 362 196.5 L 361 196.5 L 361.5 194 Z " /><path fill="rgb(120,61,20)" stroke="rgb(120,61,20)" stroke-width="1" opacity="1" d="M 163.5 200 L 166 200.5 L 163.5 201 L 163.5 200 Z " /><path fill="rgb(120,61,20)" stroke="rgb(120,61,20)" stroke-width="1" opacity="1" d="M 200.5 200 L 201 202.5 L 200 202.5 L 200.5 200 Z " /><path fill="rgb(120,61,20)" stroke="rgb(120,61,20)" stroke-width="1" opacity="1" d="M 363.5 200 L 364 202.5 L 363 202.5 L 363.5 200 Z " /><path fill="rgb(120,61,20)" stroke="rgb(120,61,20)" stroke-width="1" opacity="1" d="M 372.5 200 L 373 202.5 L 372 202.5 L 372.5 200 Z " /><path fill="rgb(120,61,20)" stroke="rgb(120,61,20)" stroke-width="1" opacity="1" d="M 274.5 201 Q 277.3 202.3 275 203.5 L 274.5 223 L 274.5 201 Z " /><path fill="rgb(120,61,20)" stroke="rgb(120,61,20)" stroke-width="1" opacity="1" d="M 423.5 201 L 424 204.5 L 423 204.5 L 423.5 201 Z " /><path fill="rgb(120,61,20)" stroke="rgb(120,61,20)" stroke-width="1" opacity="1" d="M 172.5 203 L 175 203.5 L 172.5 204 L 172.5 203 Z " /><path fill="rgb(120,61,20)" stroke="rgb(120,61,20)" stroke-width="1" opacity="1" d="M 176.5 204 L 189 204.5 L 176.5 205 L 176.5 204 Z " /><path fill="rgb(120,61,20)" stroke="rgb(120,61,20)" stroke-width="1" opacity="1" d="M 415.5 205 L 416 207.5 L 415 207.5 L 415.5 205 Z " /><path fill="rgb(120,61,20)" stroke="rgb(120,61,20)" stroke-width="1" opacity="1" d="M 424.5 206 L 425 208.5 L 424 208.5 L 424.5 206 Z " /><path fill="rgb(120,61,20)" stroke="rgb(120,61,20)" stroke-width="1" opacity="1" d="M 365.5 207 L 366 209.5 L 365 209.5 L 365.5 207 Z " /><path fill="rgb(120,61,20)" stroke="rgb(120,61,20)" stroke-width="1" opacity="1" d="M 374.5 207 L 375 209.5 L 374 209.5 L 374.5 207 Z " /><path fill="rgb(120,61,20)" stroke="rgb(120,61,20)" stroke-width="1" opacity="1" d="M 416.5 209 L 417 211.5 L 416 211.5 L 416.5 209 Z " /><path fill="rgb(120,61,20)" stroke="rgb(120,61,20)" stroke-width="1" opacity="1" d="M 425.5 210 L 426 213.5 L 425 213.5 L 425.5 210 Z " /><path fill="rgb(120,61,20)" stroke="rgb(120,61,20)" stroke-width="1" opacity="1" d="M 366.5 211 L 367 213.5 L 366 213.5 L 366.5 211 Z " /><path fill="rgb(120,61,20)" stroke="rgb(120,61,20)" stroke-width="1" opacity="1" d="M 375.5 211 L 376 216.5 L 375 216.5 L 375.5 211 Z " /><path fill="rgb(120,61,20)" stroke="rgb(120,61,20)" stroke-width="1" opacity="1" d="M 417.5 213 L 418 217.5 L 417 217.5 L 417.5 213 Z " /><path fill="rgb(120,61,20)" stroke="rgb(120,61,20)" stroke-width="1" opacity="1" d="M 82.5 214 L 83 219.5 L 82 219.5 L 82.5 214 Z " /><path fill="rgb(120,61,20)" stroke="rgb(120,61,20)" stroke-width="1" opacity="1" d="M 367.5 215 L 368 219.5 L 367 219.5 L 367.5 215 Z " /><path fill="rgb(120,61,20)" stroke="rgb(120,61,20)" stroke-width="1" opacity="1" d="M 426.5 215 L 427 239.5 L 426 239.5 L 426.5 215 Z " /><path fill="rgb(120,61,20)" stroke="rgb(120,61,20)" stroke-width="1" opacity="1" d="M 74.5 218 L 75 223.5 L 74 223.5 L 74.5 218 Z " /><path fill="rgb(120,61,20)" stroke="rgb(120,61,20)" stroke-width="1" opacity="1" d="M 376.5 218 L 377 245.5 L 376 245.5 L 376.5 218 Z " /><path fill="rgb(120,61,20)" stroke="rgb(120,61,20)" stroke-width="1" opacity="1" d="M 418.5 219 L 419 236.5 L 418 236.5 L 418.5 219 Z " /><path fill="rgb(120,61,20)" stroke="rgb(120,61,20)" stroke-width="1" opacity="1" d="M 293.5 220 L 294 222.5 L 293 222.5 L 293.5 220 Z " /><path fill="rgb(120,61,20)" stroke="rgb(120,61,20)" stroke-width="1" opacity="1" d="M 83.5 221 L 84 223.5 L 83 223.5 L 83.5 221 Z " /><path fill="rgb(120,61,20)" stroke="rgb(120,61,20)" stroke-width="1" opacity="1" d="M 368.5 221 L 369 241.5 L 368 241.5 L 368.5 221 Z " /><path fill="rgb(120,61,20)" stroke="rgb(120,61,20)" stroke-width="1" opacity="1" d="M 273.5 224 L 274 226.5 L 273 226.5 L 273.5 224 Z " /><path fill="rgb(120,61,20)" stroke="rgb(120,61,20)" stroke-width="1" opacity="1" d="M 286.5 227 L 287 229.5 L 286 229.5 L 286.5 227 Z " /><path fill="rgb(120,61,20)" stroke="rgb(120,61,20)" stroke-width="1" opacity="1" d="M 295.5 227 L 296 229.5 L 295 229.5 L 295.5 227 Z " /><path fill="rgb(120,61,20)" stroke="rgb(120,61,20)" stroke-width="1" opacity="1" d="M 76.5 228 L 77 230.5 L 76 230.5 L 76.5 228 Z " /><path fill="rgb(120,61,20)" stroke="rgb(120,61,20)" stroke-width="1" opacity="1" d="M 272.5 228 L 273 230.5 L 272 230.5 L 272.5 228 Z " /><path fill="rgb(120,61,20)" stroke="rgb(120,61,20)" stroke-width="1" opacity="1" d="M 258.5 230 L 261 230.5 L 258.5 231 L 258.5 230 Z " /><path fill="rgb(120,61,20)" stroke="rgb(120,61,20)" stroke-width="1" opacity="1" d="M 86.5 231 L 87 233.5 L 86 233.5 L 86.5 231 Z " /><path fill="rgb(120,61,20)" stroke="rgb(120,61,20)" stroke-width="1" opacity="1" d="M 251.5 231 L 256 231.5 L 251.5 232 L 251.5 231 Z " /><path fill="rgb(120,61,20)" stroke="rgb(120,61,20)" stroke-width="1" opacity="1" d="M 296.5 231 L 297 234 L 299 234.5 L 297.5 235 Q 295 234 296.5 231 Z " /><path fill="rgb(120,61,20)" stroke="rgb(120,61,20)" stroke-width="1" opacity="1" d="M 240.5 232 L 249 232.5 L 240.5 233 L 240.5 232 Z " /><path fill="rgb(120,61,20)" stroke="rgb(120,61,20)" stroke-width="1" opacity="1" d="M 301.5 233 L 332 233.5 L 301.5 234 L 301.5 233 Z " /><path fill="rgb(120,61,20)" stroke="rgb(120,61,20)" stroke-width="1" opacity="1" d="M 270.5 234 L 271 234.5 L 268.5 237 L 268 236.5 L 270.5 234 Z " /><path fill="rgb(120,61,20)" stroke="rgb(120,61,20)" stroke-width="1" opacity="1" d="M 288.5 234 L 289 239.5 L 288 239.5 L 288.5 234 Z " /><path fill="rgb(120,61,20)" stroke="rgb(120,61,20)" stroke-width="1" opacity="1" d="M 78.5 235 L 79 237.5 L 78 237.5 L 78.5 235 Z " /><path fill="rgb(120,61,20)" stroke="rgb(120,61,20)" stroke-width="1" opacity="1" d="M 87.5 235 L 88 238.5 L 87 238.5 L 87.5 235 Z " /><path fill="rgb(120,61,20)" stroke="rgb(120,61,20)" stroke-width="1" opacity="1" d="M 345.5 237 L 348 237.5 L 345.5 238 L 345.5 237 Z " /><path fill="rgb(120,61,20)" stroke="rgb(120,61,20)" stroke-width="1" opacity="1" d="M 226.5 238 L 229 238.5 L 226.5 239 L 226.5 238 Z " /><path fill="rgb(120,61,20)" stroke="rgb(120,61,20)" stroke-width="1" opacity="1" d="M 261.5 238 L 265 238.5 L 261.5 239 L 261.5 238 Z " /><path fill="rgb(120,61,20)" stroke="rgb(120,61,20)" stroke-width="1" opacity="1" d="M 79.5 239 L 80 242.5 L 79 242.5 L 79.5 239 Z " /><path fill="rgb(120,61,20)" stroke="rgb(120,61,20)" stroke-width="1" opacity="1" d="M 254.5 239 L 260 239.5 L 254.5 240 L 254.5 239 Z " /><path fill="rgb(120,61,20)" stroke="rgb(120,61,20)" stroke-width="1" opacity="1" d="M 417.5 239 L 418 242.5 L 417 242.5 L 417.5 239 Z " /><path fill="rgb(120,61,20)" stroke="rgb(120,61,20)" stroke-width="1" opacity="1" d="M 88.5 240 L 89 243.5 L 88 243.5 L 88.5 240 Z " /><path fill="rgb(120,61,20)" stroke="rgb(120,61,20)" stroke-width="1" opacity="1" d="M 251.5 240 L 253 240.5 L 250.5 242 Q 249 241 251.5 240 Z " /><path fill="rgb(120,61,20)" stroke="rgb(120,61,20)" stroke-width="1" opacity="1" d="M 236.5 241 L 240 241.5 L 236.5 242 L 236.5 241 Z " /><path fill="rgb(120,61,20)" stroke="rgb(120,61,20)" stroke-width="1" opacity="1" d="M 304.5 241 L 329 241.5 L 304.5 242 L 304.5 241 Z " /><path fill="rgb(120,61,20)" stroke="rgb(120,61,20)" stroke-width="1" opacity="1" d="M 425.5 241 L 426 245.5 L 425 245.5 L 425.5 241 Z " /><path fill="rgb(120,61,20)" stroke="rgb(120,61,20)" stroke-width="1" opacity="1" d="M 241.5 242 L 249 242.5 L 241.5 243 L 241.5 242 Z " /><path fill="rgb(120,61,20)" stroke="rgb(120,61,20)" stroke-width="1" opacity="1" d="M 291.5 242 L 303 242.5 L 291.5 243 L 291.5 242 Z " /><path fill="rgb(120,61,20)" stroke="rgb(120,61,20)" stroke-width="1" opacity="1" d="M 330.5 242 L 333 242.5 L 330.5 243 L 330.5 242 Z " /><path fill="rgb(120,61,20)" stroke="rgb(120,61,20)" stroke-width="1" opacity="1" d="M 334.5 243 L 337 243.5 L 334.5 244 L 334.5 243 Z " /><path fill="rgb(120,61,20)" stroke="rgb(120,61,20)" stroke-width="1" opacity="1" d="M 80.5 244 L 81 247.5 L 80 247.5 L 80.5 244 Z " /><path fill="rgb(120,61,20)" stroke="rgb(120,61,20)" stroke-width="1" opacity="1" d="M 338.5 244 L 341 244.5 L 338.5 245 L 338.5 244 Z " /><path fill="rgb(120,61,20)" stroke="rgb(120,61,20)" stroke-width="1" opacity="1" d="M 89.5 245 L 90 247.5 L 89 247.5 L 89.5 245 Z " /><path fill="rgb(120,61,20)" stroke="rgb(120,61,20)" stroke-width="1" opacity="1" d="M 342.5 245 L 345 245.5 L 342.5 246 L 342.5 245 Z " /><path fill="rgb(120,61,20)" stroke="rgb(120,61,20)" stroke-width="1" opacity="1" d="M 349.5 247 L 352 247.5 L 349.5 248 L 349.5 247 Z " /><path fill="rgb(120,61,20)" stroke="rgb(120,61,20)" stroke-width="1" opacity="1" d="M 375.5 247 L 376 249.5 L 375 249.5 L 375.5 247 Z " /><path fill="rgb(120,61,20)" stroke="rgb(120,61,20)" stroke-width="1" opacity="1" d="M 424.5 247 L 425 249.5 L 424 249.5 L 424.5 247 Z " /><path fill="rgb(120,61,20)" stroke="rgb(120,61,20)" stroke-width="1" opacity="1" d="M 81.5 249 L 82 251.5 L 81 251.5 L 81.5 249 Z " /><path fill="rgb(120,61,20)" stroke="rgb(120,61,20)" stroke-width="1" opacity="1" d="M 90.5 249 L 91 251.5 L 90 251.5 L 90.5 249 Z " /><path fill="rgb(120,61,20)" stroke="rgb(120,61,20)" stroke-width="1" opacity="1" d="M 82.5 253 L 83 255.5 L 82 255.5 L 82.5 253 Z " /><path fill="rgb(120,61,20)" stroke="rgb(120,61,20)" stroke-width="1" opacity="1" d="M 369.5 254 L 372 254.5 L 369.5 255 L 369.5 254 Z " /><path fill="rgb(120,61,20)" stroke="rgb(120,61,20)" stroke-width="1" opacity="1" d="M 92.5 256 L 93 258.5 L 92 258.5 L 92.5 256 Z " /><path fill="rgb(120,61,20)" stroke="rgb(120,61,20)" stroke-width="1" opacity="1" d="M 412.5 257 L 413 262.5 L 412 262.5 L 412.5 257 Z " /><path fill="rgb(120,61,20)" stroke="rgb(120,61,20)" stroke-width="1" opacity="1" d="M 421.5 257 L 422 259.5 L 421 259.5 L 421.5 257 Z " /><path fill="rgb(120,61,20)" stroke="rgb(120,61,20)" stroke-width="1" opacity="1" d="M 84.5 259 L 85 261.5 L 84 261.5 L 84.5 259 Z " /><path fill="rgb(120,61,20)" stroke="rgb(120,61,20)" stroke-width="1" opacity="1" d="M 95.5 265 L 96 267.5 L 95 267.5 L 95.5 265 Z " /><path fill="rgb(120,61,20)" stroke="rgb(120,61,20)" stroke-width="1" opacity="1" d="M 96.5 269 L 97 271.5 L 96 271.5 L 96.5 269 Z " /><path fill="rgb(120,61,20)" stroke="rgb(120,61,20)" stroke-width="1" opacity="1" d="M 88.5 272 L 89 275.5 L 88 275.5 L 88.5 272 Z " /><path fill="rgb(120,61,20)" stroke="rgb(120,61,20)" stroke-width="1" opacity="1" d="M 97.5 273 L 100 274.5 L 98.5 275 Q 96 274 97.5 273 Z " /><path fill="rgb(120,61,20)" stroke="rgb(120,61,20)" stroke-width="1" opacity="1" d="M 103.5 277 L 104 279.5 L 103 279.5 L 103.5 277 Z " /><path fill="rgb(120,61,20)" stroke="rgb(120,61,20)" stroke-width="1" opacity="1" d="M 437.5 278 L 438 290.5 L 437 290.5 L 437.5 278 Z " /><path fill="rgb(120,61,20)" stroke="rgb(120,61,20)" stroke-width="1" opacity="1" d="M 93.5 282 L 101 282.5 L 93.5 283 L 93.5 282 Z " /><path fill="rgb(120,61,20)" stroke="rgb(120,61,20)" stroke-width="1" opacity="1" d="M 110.5 282 L 111 284.5 L 110 284.5 L 110.5 282 Z " /><path fill="rgb(120,61,20)" stroke="rgb(120,61,20)" stroke-width="1" opacity="1" d="M 429.5 282 L 430 286.5 L 429 286.5 L 429.5 282 Z " /><path fill="rgb(120,61,20)" stroke="rgb(120,61,20)" stroke-width="1" opacity="1" d="M 109.5 286 L 110 286.5 L 106.5 290 L 106 289.5 L 109.5 286 Z " /><path fill="rgb(120,61,20)" stroke="rgb(120,61,20)" stroke-width="1" opacity="1" d="M 308.5 289 L 309 291.5 L 308 291.5 L 308.5 289 Z " /><path fill="rgb(120,61,20)" stroke="rgb(120,61,20)" stroke-width="1" opacity="1" d="M 95.5 290 L 96 299.5 L 95 299.5 L 95.5 290 Z " /><path fill="rgb(120,61,20)" stroke="rgb(120,61,20)" stroke-width="1" opacity="1" d="M 105.5 291 L 106 291.5 L 104 293.5 L 103.5 296 L 103 293.5 L 105.5 291 Z " /><path fill="rgb(120,61,20)" stroke="rgb(120,61,20)" stroke-width="1" opacity="1" d="M 311.5 294 L 314 294.5 L 311.5 295 L 311.5 294 Z " /><path fill="rgb(120,61,20)" stroke="rgb(120,61,20)" stroke-width="1" opacity="1" d="M 353.5 298 L 356 298.5 L 353.5 299 L 353.5 298 Z " /><path fill="rgb(120,61,20)" stroke="rgb(120,61,20)" stroke-width="1" opacity="1" d="M 433.5 298 L 434 298.5 L 428.5 304 L 428 303.5 L 433.5 298 Z " /><path fill="rgb(120,61,20)" stroke="rgb(120,61,20)" stroke-width="1" opacity="1" d="M 327.5 299 L 330 299.5 L 327.5 300 L 327.5 299 Z " /><path fill="rgb(120,61,20)" stroke="rgb(120,61,20)" stroke-width="1" opacity="1" d="M 358.5 299 L 363 299.5 L 358.5 300 L 358.5 299 Z " /><path fill="rgb(120,61,20)" stroke="rgb(120,61,20)" stroke-width="1" opacity="1" d="M 407.5 299 L 412 299.5 L 407.5 300 L 407.5 299 Z " /><path fill="rgb(120,61,20)" stroke="rgb(120,61,20)" stroke-width="1" opacity="1" d="M 365.5 300 L 405 300.5 L 365.5 301 L 365.5 300 Z " /><path fill="rgb(120,61,20)" stroke="rgb(120,61,20)" stroke-width="1" opacity="1" d="M 342.5 304 L 345 304.5 L 342.5 305 L 342.5 304 Z " /><path fill="rgb(120,61,20)" stroke="rgb(120,61,20)" stroke-width="1" opacity="1" d="M 346.5 305 L 349 305.5 L 346.5 306 L 346.5 305 Z " /><path fill="rgb(120,61,20)" stroke="rgb(120,61,20)" stroke-width="1" opacity="1" d="M 350.5 306 L 354 306.5 L 350.5 307 L 350.5 306 Z " /><path fill="rgb(120,61,20)" stroke="rgb(120,61,20)" stroke-width="1" opacity="1" d="M 355.5 307 L 361 307.5 L 355.5 308 L 355.5 307 Z " /><path fill="rgb(120,61,20)" stroke="rgb(120,61,20)" stroke-width="1" opacity="1" d="M 362.5 308 L 365 308.5 L 362.5 310 L 351.5 310 L 351.5 309 L 361.5 309 L 362.5 308 Z " /><path fill="rgb(120,61,20)" stroke="rgb(120,61,20)" stroke-width="1" opacity="1" d="M 414.5 309 L 417 309.5 L 414.5 310 L 414.5 309 Z " /><path fill="rgb(120,61,20)" stroke="rgb(120,61,20)" stroke-width="1" opacity="1" d="M 343.5 310 L 349 310.5 L 343.5 311 L 343.5 310 Z " /><path fill="rgb(120,61,20)" stroke="rgb(120,61,20)" stroke-width="1" opacity="1" d="M 337.5 311 L 341 311.5 L 337.5 312 L 337.5 311 Z " /><path fill="rgb(120,61,20)" stroke="rgb(120,61,20)" stroke-width="1" opacity="1" d="M 407.5 311 L 410 311.5 L 407.5 312 L 407.5 311 Z " /><path fill="rgb(120,61,20)" stroke="rgb(120,61,20)" stroke-width="1" opacity="1" d="M 304.5 312 L 335 312.5 L 304.5 313 L 304.5 312 Z " /><path fill="rgb(120,61,20)" stroke="rgb(120,61,20)" stroke-width="1" opacity="1" d="M 403.5 312 L 406 312.5 L 403.5 313 L 403.5 312 Z " /><path fill="rgb(120,61,20)" stroke="rgb(120,61,20)" stroke-width="1" opacity="1" d="M 396.5 313 L 402 313.5 L 396.5 314 L 396.5 313 Z " /><path fill="rgb(120,61,20)" stroke="rgb(120,61,20)" stroke-width="1" opacity="1" d="M 389.5 314 L 395 314.5 L 389.5 315 L 389.5 314 Z " /><path fill="rgb(120,61,20)" stroke="rgb(120,61,20)" stroke-width="1" opacity="1" d="M 381.5 315 L 388 315.5 L 381.5 316 L 381.5 315 Z " /><path fill="rgb(120,61,20)" stroke="rgb(120,61,20)" stroke-width="1" opacity="1" d="M 367.5 316 L 380 316.5 L 367.5 317 L 367.5 316 Z " /><path fill="rgb(120,61,20)" stroke="rgb(120,61,20)" stroke-width="1" opacity="1" d="M 354.5 317 L 366 317.5 L 354.5 318 L 354.5 317 Z " /><path fill="rgb(120,61,20)" stroke="rgb(120,61,20)" stroke-width="1" opacity="1" d="M 346.5 318 L 353 318.5 L 346.5 319 L 346.5 318 Z " /><path fill="rgb(120,61,20)" stroke="rgb(120,61,20)" stroke-width="1" opacity="1" d="M 282.5 319 L 285 319.5 L 282.5 320 L 282.5 319 Z " /><path fill="rgb(120,61,20)" stroke="rgb(120,61,20)" stroke-width="1" opacity="1" d="M 340.5 319 L 345 319.5 L 340.5 320 L 340.5 319 Z " /><path fill="rgb(120,61,20)" stroke="rgb(120,61,20)" stroke-width="1" opacity="1" d="M 306.5 320 L 339 320.5 L 306.5 321 L 306.5 320 Z " /><path fill="rgb(120,61,20)" stroke="rgb(120,61,20)" stroke-width="1" opacity="1" d="M 271.5 321 L 276 321.5 L 271.5 322 L 271.5 321 Z " /><path fill="rgb(120,61,20)" stroke="rgb(120,61,20)" stroke-width="1" opacity="1" d="M 303.5 321 L 305 321.5 L 302.5 323 Q 301 322 303.5 321 Z " /><path fill="rgb(120,61,20)" stroke="rgb(120,61,20)" stroke-width="1" opacity="1" d="M 107.5 322 L 110 324.5 L 109.5 325 L 107 322.5 L 107.5 322 Z " /><path fill="rgb(120,61,20)" stroke="rgb(120,61,20)" stroke-width="1" opacity="1" d="M 294.5 325 L 297 325.5 L 294.5 326 L 294.5 325 Z " /><path fill="rgb(120,61,20)" stroke="rgb(120,61,20)" stroke-width="1" opacity="1" d="M 156.5 326 L 157 331 L 154 330.5 L 156 330 L 156.5 326 Z " /><path fill="rgb(120,61,20)" stroke="rgb(120,61,20)" stroke-width="1" opacity="1" d="M 167.5 326 L 171 326.5 L 167.5 327 L 167.5 326 Z " /><path fill="rgb(120,61,20)" stroke="rgb(120,61,20)" stroke-width="1" opacity="1" d="M 290.5 326 L 293 326.5 L 290.5 327 L 290.5 326 Z " /><path fill="rgb(120,61,20)" stroke="rgb(120,61,20)" stroke-width="1" opacity="1" d="M 173.5 327 L 176 327.5 L 173.5 328 L 173.5 327 Z " /><path fill="rgb(120,61,20)" stroke="rgb(120,61,20)" stroke-width="1" opacity="1" d="M 285.5 327 L 289 327.5 L 285.5 328 L 285.5 327 Z " /><path fill="rgb(120,61,20)" stroke="rgb(120,61,20)" stroke-width="1" opacity="1" d="M 239.5 328 L 248 328.5 L 239.5 329 L 239.5 328 Z " /><path fill="rgb(120,61,20)" stroke="rgb(120,61,20)" stroke-width="1" opacity="1" d="M 281.5 328 L 284 328.5 L 281.5 329 L 281.5 328 Z " /><path fill="rgb(120,61,20)" stroke="rgb(120,61,20)" stroke-width="1" opacity="1" d="M 233.5 329 L 237 329.5 L 233.5 330 L 233.5 329 Z " /><path fill="rgb(120,61,20)" stroke="rgb(120,61,20)" stroke-width="1" opacity="1" d="M 274.5 329 L 280 329.5 L 274.5 330 L 274.5 329 Z " /><path fill="rgb(120,61,20)" stroke="rgb(120,61,20)" stroke-width="1" opacity="1" d="M 134.5 330 L 141 330.5 L 134.5 331 L 134.5 330 Z " /><path fill="rgb(120,61,20)" stroke="rgb(120,61,20)" stroke-width="1" opacity="1" d="M 183.5 330 L 188 330.5 L 183.5 331 L 183.5 330 Z " /><path fill="rgb(120,61,20)" stroke="rgb(120,61,20)" stroke-width="1" opacity="1" d="M 228.5 330 L 231 330.5 L 228.5 331 L 228.5 330 Z " /><path fill="rgb(120,61,20)" stroke="rgb(120,61,20)" stroke-width="1" opacity="1" d="M 269.5 330 L 273 330.5 L 269.5 331 L 269.5 330 Z " /><path fill="rgb(120,61,20)" stroke="rgb(120,61,20)" stroke-width="1" opacity="1" d="M 143.5 331 L 152 331.5 L 143.5 332 L 143.5 331 Z " /><path fill="rgb(120,61,20)" stroke="rgb(120,61,20)" stroke-width="1" opacity="1" d="M 190.5 331 L 194 331.5 L 190.5 332 L 190.5 331 Z " /><path fill="rgb(120,61,20)" stroke="rgb(120,61,20)" stroke-width="1" opacity="1" d="M 223.5 331 L 226 331.5 L 223.5 332 L 223.5 331 Z " /><path fill="rgb(120,61,20)" stroke="rgb(120,61,20)" stroke-width="1" opacity="1" d="M 196.5 332 L 221 332.5 L 196.5 333 L 196.5 332 Z " /><path fill="rgb(120,61,20)" stroke="rgb(120,61,20)" stroke-width="1" opacity="1" d="M 259.5 333 L 262 333.5 L 259.5 334 L 259.5 333 Z " /><path fill="rgb(120,61,20)" stroke="rgb(120,61,20)" stroke-width="1" opacity="1" d="M 169.5 335 L 173 335.5 L 169.5 336 L 169.5 335 Z " /><path fill="rgb(120,61,20)" stroke="rgb(120,61,20)" stroke-width="1" opacity="1" d="M 242.5 336 L 252 336.5 L 242.5 337 L 242.5 336 Z " /><path fill="rgb(120,61,20)" stroke="rgb(120,61,20)" stroke-width="1" opacity="1" d="M 127.5 337 L 130 337.5 L 127.5 338 L 127.5 337 Z " /><path fill="rgb(120,61,20)" stroke="rgb(120,61,20)" stroke-width="1" opacity="1" d="M 236.5 337 L 241 337.5 L 236.5 338 L 236.5 337 Z " /><path fill="rgb(120,61,20)" stroke="rgb(120,61,20)" stroke-width="1" opacity="1" d="M 131.5 338 L 138 338.5 L 131.5 339 L 131.5 338 Z " /><path fill="rgb(120,61,20)" stroke="rgb(120,61,20)" stroke-width="1" opacity="1" d="M 157.5 338 L 163 338.5 L 157.5 339 L 157.5 338 Z " /><path fill="rgb(120,61,20)" stroke="rgb(120,61,20)" stroke-width="1" opacity="1" d="M 179.5 338 L 185 338.5 L 179.5 339 L 179.5 338 Z " /><path fill="rgb(120,61,20)" stroke="rgb(120,61,20)" stroke-width="1" opacity="1" d="M 231.5 338 L 235 338.5 L 231.5 339 L 231.5 338 Z " /><path fill="rgb(120,61,20)" stroke="rgb(120,61,20)" stroke-width="1" opacity="1" d="M 139.5 339 L 156 339.5 L 139.5 340 L 139.5 339 Z " /><path fill="rgb(120,61,20)" stroke="rgb(120,61,20)" stroke-width="1" opacity="1" d="M 186.5 339 L 192 339.5 L 186.5 340 L 186.5 339 Z " /><path fill="rgb(120,61,20)" stroke="rgb(120,61,20)" stroke-width="1" opacity="1" d="M 226.5 339 L 230 339.5 L 226.5 340 L 226.5 339 Z " /><path fill="rgb(120,61,20)" stroke="rgb(120,61,20)" stroke-width="1" opacity="1" d="M 193.5 340 L 225 340.5 L 193.5 341 L 193.5 340 Z " /></svg>